<?xml version='1.0' encoding='utf-8'?>
<svg xmlns="http://www.w3.org/2000/svg" id="Capa_1" data-name="Capa 1" viewBox="0 0 2000 800">
  <defs>
    <style>
      .cls-1 {
        fill: #cfcfcf;
        stroke-width: 6px;
      }

      .cls-1, .cls-2, .cls-3, .cls-4 {
        stroke: #111;
      }

      .cls-5 {
        font-size: 18px;
      }

      .cls-5, .cls-6 {
        font-family: ArialMT, Arial;
        isolation: isolate;
      }

      .cls-6 {
        font-size: 16px;
      }

      .cls-7, .cls-3 {
        fill: #fff;
      }

      .cls-8 {
        fill: none;
        stroke: #000;
        stroke-width: 8px;
      }

      .cls-2 {
        fill: #dbeefc;
      }

      .cls-2, .cls-3, .cls-4 {
        stroke-width: 2px;
      }

      .cls-9 {
        letter-spacing: -.07em;
      }

      .cls-4 {
        fill: #e6f4e6;
      }
    </style>
  </defs>
  <rect class="cls-7" width="2000" height="800" id="1" />
  <g id="left-label">
    <rect class="cls-2" x="20" y="71" width="80" height="580" rx="2" ry="2" id="28" />
    <text class="cls-5" transform="translate(49.99 109)"><tspan x="0" y="0">14</tspan></text>
    <text class="cls-5" transform="translate(49.99 149)"><tspan x="0" y="0">13</tspan></text>
    <text class="cls-5" transform="translate(49.99 189)"><tspan x="0" y="0">12</tspan></text>
    <text class="cls-5" transform="translate(50.66 229)"><tspan class="cls-9" x="0" y="0">1</tspan><tspan x="8.67" y="0">1</tspan></text>
    <text class="cls-5" transform="translate(49.99 269)"><tspan x="0" y="0">10</tspan></text>
    <text class="cls-5" transform="translate(54.99 309)"><tspan x="0" y="0">9</tspan></text>
    <text class="cls-5" transform="translate(54.99 349)"><tspan x="0" y="0">8</tspan></text>
    <text class="cls-5" transform="translate(54.99 389)"><tspan x="0" y="0">7</tspan></text>
    <text class="cls-5" transform="translate(54.99 429)"><tspan x="0" y="0">6</tspan></text>
    <text class="cls-5" transform="translate(54.99 469)"><tspan x="0" y="0">5</tspan></text>
    <text class="cls-5" transform="translate(54.99 509)"><tspan x="0" y="0">4</tspan></text>
    <text class="cls-5" transform="translate(54.99 549)"><tspan x="0" y="0">3</tspan></text>
    <text class="cls-5" transform="translate(54.99 589)"><tspan x="0" y="0">2</tspan></text>
    <text class="cls-5" transform="translate(54.99 629)"><tspan x="0" y="0">1</tspan></text>
  </g>
  <rect class="cls-8" x="114" y="74" width="1080" height="570" rx="4" ry="4" id="29" />
  <rect class="cls-1" x="330" y="80" width="80" height="560" id="36" />
  <rect class="cls-1" x="898" y="80" width="80" height="560" id="51" />
  <rect class="cls-3" x="120" y="80" width="28" height="34" rx="2" ry="2" id="30" />
  <rect class="cls-3" x="120" y="120" width="28" height="34" rx="2" ry="2" id="58" />
  <rect class="cls-3" x="120" y="160" width="28" height="34" rx="2" ry="2" id="84" />
  <rect class="cls-3" x="120" y="200" width="28" height="34" rx="2" ry="2" id="110" />
  <rect class="cls-3" x="120" y="240" width="28" height="34" rx="2" ry="2" id="136" />
  <rect class="cls-3" x="120" y="280" width="28" height="34" rx="2" ry="2" id="162" />
  <rect class="cls-3" x="120" y="320" width="28" height="34" rx="2" ry="2" id="188" />
  <rect class="cls-3" x="120" y="360" width="28" height="34" rx="2" ry="2" id="214" />
  <rect class="cls-3" x="120" y="400" width="28" height="34" rx="2" ry="2" id="240" />
  <rect class="cls-3" x="120" y="440" width="28" height="34" rx="2" ry="2" id="266" />
  <rect class="cls-3" x="120" y="480" width="28" height="34" rx="2" ry="2" id="292" />
  <rect class="cls-3" x="120" y="520" width="28" height="34" rx="2" ry="2" id="318" />
  <rect class="cls-3" x="120" y="560" width="28" height="34" rx="2" ry="2" id="344" />
  <rect class="cls-3" x="120" y="600" width="28" height="34" rx="2" ry="2" id="370" />
  <rect class="cls-3" x="154" y="80" width="28" height="34" rx="2" ry="2" id="31" />
  <rect class="cls-3" x="154" y="120" width="28" height="34" rx="2" ry="2" id="59" />
  <rect class="cls-3" x="154" y="160" width="28" height="34" rx="2" ry="2" id="85" />
  <rect class="cls-3" x="154" y="200" width="28" height="34" rx="2" ry="2" id="111" />
  <rect class="cls-3" x="154" y="240" width="28" height="34" rx="2" ry="2" id="137" />
  <rect class="cls-3" x="154" y="280" width="28" height="34" rx="2" ry="2" id="163" />
  <rect class="cls-3" x="154" y="320" width="28" height="34" rx="2" ry="2" id="189" />
  <rect class="cls-3" x="154" y="360" width="28" height="34" rx="2" ry="2" id="215" />
  <rect class="cls-3" x="154" y="400" width="28" height="34" rx="2" ry="2" id="241" />
  <rect class="cls-3" x="154" y="440" width="28" height="34" rx="2" ry="2" id="267" />
  <rect class="cls-3" x="154" y="480" width="28" height="34" rx="2" ry="2" id="293" />
  <rect class="cls-3" x="154" y="520" width="28" height="34" rx="2" ry="2" id="319" />
  <rect class="cls-3" x="154" y="560" width="28" height="34" rx="2" ry="2" id="345" />
  <rect class="cls-3" x="154" y="600" width="28" height="34" rx="2" ry="2" id="371" />
  <rect class="cls-3" x="188" y="80" width="28" height="34" rx="2" ry="2" id="32" />
  <rect class="cls-3" x="188" y="120" width="28" height="34" rx="2" ry="2" id="60" />
  <rect class="cls-3" x="188" y="160" width="28" height="34" rx="2" ry="2" id="86" />
  <rect class="cls-3" x="188" y="200" width="28" height="34" rx="2" ry="2" id="112" />
  <rect class="cls-3" x="188" y="240" width="28" height="34" rx="2" ry="2" id="138" />
  <rect class="cls-3" x="188" y="280" width="28" height="34" rx="2" ry="2" id="164" />
  <rect class="cls-3" x="188" y="320" width="28" height="34" rx="2" ry="2" id="190" />
  <rect class="cls-3" x="188" y="360" width="28" height="34" rx="2" ry="2" id="216" />
  <rect class="cls-3" x="188" y="400" width="28" height="34" rx="2" ry="2" id="242" />
  <rect class="cls-3" x="188" y="440" width="28" height="34" rx="2" ry="2" id="268" />
  <rect class="cls-3" x="188" y="480" width="28" height="34" rx="2" ry="2" id="294" />
  <rect class="cls-3" x="188" y="520" width="28" height="34" rx="2" ry="2" id="320" />
  <rect class="cls-3" x="188" y="560" width="28" height="34" rx="2" ry="2" id="346" />
  <rect class="cls-3" x="188" y="600" width="28" height="34" rx="2" ry="2" id="372" />
  <rect class="cls-3" x="222" y="80" width="28" height="34" rx="2" ry="2" id="33" />
  <rect class="cls-3" x="222" y="120" width="28" height="34" rx="2" ry="2" id="61" />
  <rect class="cls-3" x="222" y="160" width="28" height="34" rx="2" ry="2" id="87" />
  <rect class="cls-3" x="222" y="200" width="28" height="34" rx="2" ry="2" id="113" />
  <rect class="cls-3" x="222" y="240" width="28" height="34" rx="2" ry="2" id="139" />
  <rect class="cls-3" x="222" y="280" width="28" height="34" rx="2" ry="2" id="165" />
  <rect class="cls-3" x="222" y="320" width="28" height="34" rx="2" ry="2" id="191" />
  <rect class="cls-3" x="222" y="360" width="28" height="34" rx="2" ry="2" id="217" />
  <rect class="cls-3" x="222" y="400" width="28" height="34" rx="2" ry="2" id="243" />
  <rect class="cls-3" x="222" y="440" width="28" height="34" rx="2" ry="2" id="269" />
  <rect class="cls-3" x="222" y="480" width="28" height="34" rx="2" ry="2" id="295" />
  <rect class="cls-3" x="222" y="520" width="28" height="34" rx="2" ry="2" id="321" />
  <rect class="cls-3" x="222" y="560" width="28" height="34" rx="2" ry="2" id="347" />
  <rect class="cls-3" x="222" y="600" width="28" height="34" rx="2" ry="2" id="373" />
  <rect class="cls-3" x="256" y="80" width="28" height="34" rx="2" ry="2" id="34" />
  <rect class="cls-3" x="256" y="120" width="28" height="34" rx="2" ry="2" id="62" />
  <rect class="cls-3" x="256" y="160" width="28" height="34" rx="2" ry="2" id="88" />
  <rect class="cls-3" x="256" y="200" width="28" height="34" rx="2" ry="2" id="114" />
  <rect class="cls-3" x="256" y="240" width="28" height="34" rx="2" ry="2" id="140" />
  <rect class="cls-3" x="256" y="280" width="28" height="34" rx="2" ry="2" id="166" />
  <rect class="cls-3" x="256" y="320" width="28" height="34" rx="2" ry="2" id="192" />
  <rect class="cls-3" x="256" y="360" width="28" height="34" rx="2" ry="2" id="218" />
  <rect class="cls-3" x="256" y="400" width="28" height="34" rx="2" ry="2" id="244" />
  <rect class="cls-3" x="256" y="440" width="28" height="34" rx="2" ry="2" id="270" />
  <rect class="cls-3" x="256" y="480" width="28" height="34" rx="2" ry="2" id="296" />
  <rect class="cls-3" x="256" y="520" width="28" height="34" rx="2" ry="2" id="322" />
  <rect class="cls-3" x="256" y="560" width="28" height="34" rx="2" ry="2" id="348" />
  <rect class="cls-3" x="256" y="600" width="28" height="34" rx="2" ry="2" id="374" />
  <rect class="cls-3" x="290" y="80" width="28" height="34" rx="2" ry="2" id="35" />
  <rect class="cls-3" x="290" y="120" width="28" height="34" rx="2" ry="2" id="63" />
  <rect class="cls-3" x="290" y="160" width="28" height="34" rx="2" ry="2" id="89" />
  <rect class="cls-3" x="290" y="200" width="28" height="34" rx="2" ry="2" id="115" />
  <rect class="cls-3" x="290" y="240" width="28" height="34" rx="2" ry="2" id="141" />
  <rect class="cls-3" x="290" y="280" width="28" height="34" rx="2" ry="2" id="167" />
  <rect class="cls-3" x="290" y="320" width="28" height="34" rx="2" ry="2" id="193" />
  <rect class="cls-3" x="290" y="360" width="28" height="34" rx="2" ry="2" id="219" />
  <rect class="cls-3" x="290" y="400" width="28" height="34" rx="2" ry="2" id="245" />
  <rect class="cls-3" x="290" y="440" width="28" height="34" rx="2" ry="2" id="271" />
  <rect class="cls-3" x="290" y="480" width="28" height="34" rx="2" ry="2" id="297" />
  <rect class="cls-3" x="290" y="520" width="28" height="34" rx="2" ry="2" id="323" />
  <rect class="cls-3" x="290" y="560" width="28" height="34" rx="2" ry="2" id="349" />
  <rect class="cls-3" x="290" y="600" width="28" height="34" rx="2" ry="2" id="375" />
  <rect class="cls-3" x="416" y="80" width="28" height="34" rx="2" ry="2" id="37" />
  <rect class="cls-3" x="416" y="120" width="28" height="34" rx="2" ry="2" id="64" />
  <rect class="cls-3" x="416" y="160" width="28" height="34" rx="2" ry="2" id="90" />
  <rect class="cls-3" x="416" y="200" width="28" height="34" rx="2" ry="2" id="116" />
  <rect class="cls-3" x="416" y="240" width="28" height="34" rx="2" ry="2" id="142" />
  <rect class="cls-3" x="416" y="280" width="28" height="34" rx="2" ry="2" id="168" />
  <rect class="cls-3" x="416" y="320" width="28" height="34" rx="2" ry="2" id="194" />
  <rect class="cls-3" x="416" y="360" width="28" height="34" rx="2" ry="2" id="220" />
  <rect class="cls-3" x="416" y="400" width="28" height="34" rx="2" ry="2" id="246" />
  <rect class="cls-3" x="416" y="440" width="28" height="34" rx="2" ry="2" id="272" />
  <rect class="cls-3" x="416" y="480" width="28" height="34" rx="2" ry="2" id="298" />
  <rect class="cls-3" x="416" y="520" width="28" height="34" rx="2" ry="2" id="324" />
  <rect class="cls-3" x="416" y="560" width="28" height="34" rx="2" ry="2" id="350" />
  <rect class="cls-3" x="416" y="600" width="28" height="34" rx="2" ry="2" id="376" />
  <rect class="cls-3" x="450" y="80" width="28" height="34" rx="2" ry="2" id="38" />
  <rect class="cls-3" x="450" y="120" width="28" height="34" rx="2" ry="2" id="65" />
  <rect class="cls-3" x="450" y="160" width="28" height="34" rx="2" ry="2" id="91" />
  <rect class="cls-3" x="450" y="200" width="28" height="34" rx="2" ry="2" id="117" />
  <rect class="cls-3" x="450" y="240" width="28" height="34" rx="2" ry="2" id="143" />
  <rect class="cls-3" x="450" y="280" width="28" height="34" rx="2" ry="2" id="169" />
  <rect class="cls-3" x="450" y="320" width="28" height="34" rx="2" ry="2" id="195" />
  <rect class="cls-3" x="450" y="360" width="28" height="34" rx="2" ry="2" id="221" />
  <rect class="cls-3" x="450" y="400" width="28" height="34" rx="2" ry="2" id="247" />
  <rect class="cls-3" x="450" y="440" width="28" height="34" rx="2" ry="2" id="273" />
  <rect class="cls-3" x="450" y="480" width="28" height="34" rx="2" ry="2" id="299" />
  <rect class="cls-3" x="450" y="520" width="28" height="34" rx="2" ry="2" id="325" />
  <rect class="cls-3" x="450" y="560" width="28" height="34" rx="2" ry="2" id="351" />
  <rect class="cls-3" x="450" y="600" width="28" height="34" rx="2" ry="2" id="377" />
  <rect class="cls-3" x="484" y="80" width="28" height="34" rx="2" ry="2" id="39" />
  <rect class="cls-3" x="484" y="120" width="28" height="34" rx="2" ry="2" id="66" />
  <rect class="cls-3" x="484" y="160" width="28" height="34" rx="2" ry="2" id="92" />
  <rect class="cls-3" x="484" y="200" width="28" height="34" rx="2" ry="2" id="118" />
  <rect class="cls-3" x="484" y="240" width="28" height="34" rx="2" ry="2" id="144" />
  <rect class="cls-3" x="484" y="280" width="28" height="34" rx="2" ry="2" id="170" />
  <rect class="cls-3" x="484" y="320" width="28" height="34" rx="2" ry="2" id="196" />
  <rect class="cls-3" x="484" y="360" width="28" height="34" rx="2" ry="2" id="222" />
  <rect class="cls-3" x="484" y="400" width="28" height="34" rx="2" ry="2" id="248" />
  <rect class="cls-3" x="484" y="440" width="28" height="34" rx="2" ry="2" id="274" />
  <rect class="cls-3" x="484" y="480" width="28" height="34" rx="2" ry="2" id="300" />
  <rect class="cls-3" x="484" y="520" width="28" height="34" rx="2" ry="2" id="326" />
  <rect class="cls-3" x="484" y="560" width="28" height="34" rx="2" ry="2" id="352" />
  <rect class="cls-3" x="484" y="600" width="28" height="34" rx="2" ry="2" id="378" />
  <rect class="cls-3" x="518" y="80" width="28" height="34" rx="2" ry="2" id="40" />
  <rect class="cls-3" x="518" y="120" width="28" height="34" rx="2" ry="2" id="67" />
  <rect class="cls-3" x="518" y="160" width="28" height="34" rx="2" ry="2" id="93" />
  <rect class="cls-3" x="518" y="200" width="28" height="34" rx="2" ry="2" id="119" />
  <rect class="cls-3" x="518" y="240" width="28" height="34" rx="2" ry="2" id="145" />
  <rect class="cls-3" x="518" y="280" width="28" height="34" rx="2" ry="2" id="171" />
  <rect class="cls-3" x="518" y="320" width="28" height="34" rx="2" ry="2" id="197" />
  <rect class="cls-3" x="518" y="360" width="28" height="34" rx="2" ry="2" id="223" />
  <rect class="cls-3" x="518" y="400" width="28" height="34" rx="2" ry="2" id="249" />
  <rect class="cls-3" x="518" y="440" width="28" height="34" rx="2" ry="2" id="275" />
  <rect class="cls-3" x="518" y="480" width="28" height="34" rx="2" ry="2" id="301" />
  <rect class="cls-3" x="518" y="520" width="28" height="34" rx="2" ry="2" id="327" />
  <rect class="cls-3" x="518" y="560" width="28" height="34" rx="2" ry="2" id="353" />
  <rect class="cls-3" x="518" y="600" width="28" height="34" rx="2" ry="2" id="379" />
  <rect class="cls-3" x="552" y="80" width="28" height="34" rx="2" ry="2" id="41" />
  <rect class="cls-3" x="552" y="120" width="28" height="34" rx="2" ry="2" id="68" />
  <rect class="cls-3" x="552" y="160" width="28" height="34" rx="2" ry="2" id="94" />
  <rect class="cls-3" x="552" y="200" width="28" height="34" rx="2" ry="2" id="120" />
  <rect class="cls-3" x="552" y="240" width="28" height="34" rx="2" ry="2" id="146" />
  <rect class="cls-3" x="552" y="280" width="28" height="34" rx="2" ry="2" id="172" />
  <rect class="cls-3" x="552" y="320" width="28" height="34" rx="2" ry="2" id="198" />
  <rect class="cls-3" x="552" y="360" width="28" height="34" rx="2" ry="2" id="224" />
  <rect class="cls-3" x="552" y="400" width="28" height="34" rx="2" ry="2" id="250" />
  <rect class="cls-3" x="552" y="440" width="28" height="34" rx="2" ry="2" id="276" />
  <rect class="cls-3" x="552" y="480" width="28" height="34" rx="2" ry="2" id="302" />
  <rect class="cls-3" x="552" y="520" width="28" height="34" rx="2" ry="2" id="328" />
  <rect class="cls-3" x="552" y="560" width="28" height="34" rx="2" ry="2" id="354" />
  <rect class="cls-3" x="552" y="600" width="28" height="34" rx="2" ry="2" id="380" />
  <rect class="cls-3" x="586" y="80" width="28" height="34" rx="2" ry="2" id="42" />
  <rect class="cls-3" x="586" y="120" width="28" height="34" rx="2" ry="2" id="69" />
  <rect class="cls-3" x="586" y="160" width="28" height="34" rx="2" ry="2" id="95" />
  <rect class="cls-3" x="586" y="200" width="28" height="34" rx="2" ry="2" id="121" />
  <rect class="cls-3" x="586" y="240" width="28" height="34" rx="2" ry="2" id="147" />
  <rect class="cls-3" x="586" y="280" width="28" height="34" rx="2" ry="2" id="173" />
  <rect class="cls-3" x="586" y="320" width="28" height="34" rx="2" ry="2" id="199" />
  <rect class="cls-3" x="586" y="360" width="28" height="34" rx="2" ry="2" id="225" />
  <rect class="cls-3" x="586" y="400" width="28" height="34" rx="2" ry="2" id="251" />
  <rect class="cls-3" x="586" y="440" width="28" height="34" rx="2" ry="2" id="277" />
  <rect class="cls-3" x="586" y="480" width="28" height="34" rx="2" ry="2" id="303" />
  <rect class="cls-3" x="586" y="520" width="28" height="34" rx="2" ry="2" id="329" />
  <rect class="cls-3" x="586" y="560" width="28" height="34" rx="2" ry="2" id="355" />
  <rect class="cls-3" x="586" y="600" width="28" height="34" rx="2" ry="2" id="381" />
  <rect class="cls-3" x="620" y="80" width="28" height="34" rx="2" ry="2" id="43" />
  <rect class="cls-3" x="620" y="120" width="28" height="34" rx="2" ry="2" id="70" />
  <rect class="cls-3" x="620" y="160" width="28" height="34" rx="2" ry="2" id="96" />
  <rect class="cls-3" x="620" y="200" width="28" height="34" rx="2" ry="2" id="122" />
  <rect class="cls-3" x="620" y="240" width="28" height="34" rx="2" ry="2" id="148" />
  <rect class="cls-3" x="620" y="280" width="28" height="34" rx="2" ry="2" id="174" />
  <rect class="cls-3" x="620" y="320" width="28" height="34" rx="2" ry="2" id="200" />
  <rect class="cls-3" x="620" y="360" width="28" height="34" rx="2" ry="2" id="226" />
  <rect class="cls-3" x="620" y="400" width="28" height="34" rx="2" ry="2" id="252" />
  <rect class="cls-3" x="620" y="440" width="28" height="34" rx="2" ry="2" id="278" />
  <rect class="cls-3" x="620" y="480" width="28" height="34" rx="2" ry="2" id="304" />
  <rect class="cls-3" x="620" y="520" width="28" height="34" rx="2" ry="2" id="330" />
  <rect class="cls-3" x="620" y="560" width="28" height="34" rx="2" ry="2" id="356" />
  <rect class="cls-3" x="620" y="600" width="28" height="34" rx="2" ry="2" id="382" />
  <rect class="cls-3" x="654" y="80" width="28" height="34" rx="2" ry="2" id="44" />
  <rect class="cls-3" x="654" y="120" width="28" height="34" rx="2" ry="2" id="71" />
  <rect class="cls-3" x="654" y="160" width="28" height="34" rx="2" ry="2" id="97" />
  <rect class="cls-3" x="654" y="200" width="28" height="34" rx="2" ry="2" id="123" />
  <rect class="cls-3" x="654" y="240" width="28" height="34" rx="2" ry="2" id="149" />
  <rect class="cls-3" x="654" y="280" width="28" height="34" rx="2" ry="2" id="175" />
  <rect class="cls-3" x="654" y="320" width="28" height="34" rx="2" ry="2" id="201" />
  <rect class="cls-3" x="654" y="360" width="28" height="34" rx="2" ry="2" id="227" />
  <rect class="cls-3" x="654" y="400" width="28" height="34" rx="2" ry="2" id="253" />
  <rect class="cls-3" x="654" y="440" width="28" height="34" rx="2" ry="2" id="279" />
  <rect class="cls-3" x="654" y="480" width="28" height="34" rx="2" ry="2" id="305" />
  <rect class="cls-3" x="654" y="520" width="28" height="34" rx="2" ry="2" id="331" />
  <rect class="cls-3" x="654" y="560" width="28" height="34" rx="2" ry="2" id="357" />
  <rect class="cls-3" x="654" y="600" width="28" height="34" rx="2" ry="2" id="383" />
  <rect class="cls-3" x="688" y="80" width="28" height="34" rx="2" ry="2" id="45" />
  <rect class="cls-3" x="688" y="120" width="28" height="34" rx="2" ry="2" id="72" />
  <rect class="cls-3" x="688" y="160" width="28" height="34" rx="2" ry="2" id="98" />
  <rect class="cls-3" x="688" y="200" width="28" height="34" rx="2" ry="2" id="124" />
  <rect class="cls-3" x="688" y="240" width="28" height="34" rx="2" ry="2" id="150" />
  <rect class="cls-3" x="688" y="280" width="28" height="34" rx="2" ry="2" id="176" />
  <rect class="cls-3" x="688" y="320" width="28" height="34" rx="2" ry="2" id="202" />
  <rect class="cls-3" x="688" y="360" width="28" height="34" rx="2" ry="2" id="228" />
  <rect class="cls-3" x="688" y="400" width="28" height="34" rx="2" ry="2" id="254" />
  <rect class="cls-3" x="688" y="440" width="28" height="34" rx="2" ry="2" id="280" />
  <rect class="cls-3" x="688" y="480" width="28" height="34" rx="2" ry="2" id="306" />
  <rect class="cls-3" x="688" y="520" width="28" height="34" rx="2" ry="2" id="332" />
  <rect class="cls-3" x="688" y="560" width="28" height="34" rx="2" ry="2" id="358" />
  <rect class="cls-3" x="688" y="600" width="28" height="34" rx="2" ry="2" id="384" />
  <rect class="cls-3" x="722" y="80" width="28" height="34" rx="2" ry="2" id="46" />
  <rect class="cls-3" x="722" y="120" width="28" height="34" rx="2" ry="2" id="73" />
  <rect class="cls-3" x="722" y="160" width="28" height="34" rx="2" ry="2" id="99" />
  <rect class="cls-3" x="722" y="200" width="28" height="34" rx="2" ry="2" id="125" />
  <rect class="cls-3" x="722" y="240" width="28" height="34" rx="2" ry="2" id="151" />
  <rect class="cls-3" x="722" y="280" width="28" height="34" rx="2" ry="2" id="177" />
  <rect class="cls-3" x="722" y="320" width="28" height="34" rx="2" ry="2" id="203" />
  <rect class="cls-3" x="722" y="360" width="28" height="34" rx="2" ry="2" id="229" />
  <rect class="cls-3" x="722" y="400" width="28" height="34" rx="2" ry="2" id="255" />
  <rect class="cls-3" x="722" y="440" width="28" height="34" rx="2" ry="2" id="281" />
  <rect class="cls-3" x="722" y="480" width="28" height="34" rx="2" ry="2" id="307" />
  <rect class="cls-3" x="722" y="520" width="28" height="34" rx="2" ry="2" id="333" />
  <rect class="cls-3" x="722" y="560" width="28" height="34" rx="2" ry="2" id="359" />
  <rect class="cls-3" x="722" y="600" width="28" height="34" rx="2" ry="2" id="385" />
  <rect class="cls-3" x="756" y="80" width="28" height="34" rx="2" ry="2" id="47" />
  <rect class="cls-3" x="756" y="120" width="28" height="34" rx="2" ry="2" id="74" />
  <rect class="cls-3" x="756" y="160" width="28" height="34" rx="2" ry="2" id="100" />
  <rect class="cls-3" x="756" y="200" width="28" height="34" rx="2" ry="2" id="126" />
  <rect class="cls-3" x="756" y="240" width="28" height="34" rx="2" ry="2" id="152" />
  <rect class="cls-3" x="756" y="280" width="28" height="34" rx="2" ry="2" id="178" />
  <rect class="cls-3" x="756" y="320" width="28" height="34" rx="2" ry="2" id="204" />
  <rect class="cls-3" x="756" y="360" width="28" height="34" rx="2" ry="2" id="230" />
  <rect class="cls-3" x="756" y="400" width="28" height="34" rx="2" ry="2" id="256" />
  <rect class="cls-3" x="756" y="440" width="28" height="34" rx="2" ry="2" id="282" />
  <rect class="cls-3" x="756" y="480" width="28" height="34" rx="2" ry="2" id="308" />
  <rect class="cls-3" x="756" y="520" width="28" height="34" rx="2" ry="2" id="334" />
  <rect class="cls-3" x="756" y="560" width="28" height="34" rx="2" ry="2" id="360" />
  <rect class="cls-3" x="756" y="600" width="28" height="34" rx="2" ry="2" id="386" />
  <rect class="cls-3" x="790" y="80" width="28" height="34" rx="2" ry="2" id="48" />
  <rect class="cls-3" x="790" y="120" width="28" height="34" rx="2" ry="2" id="75" />
  <rect class="cls-3" x="790" y="160" width="28" height="34" rx="2" ry="2" id="101" />
  <rect class="cls-3" x="790" y="200" width="28" height="34" rx="2" ry="2" id="127" />
  <rect class="cls-3" x="790" y="240" width="28" height="34" rx="2" ry="2" id="153" />
  <rect class="cls-3" x="790" y="280" width="28" height="34" rx="2" ry="2" id="179" />
  <rect class="cls-3" x="790" y="320" width="28" height="34" rx="2" ry="2" id="205" />
  <rect class="cls-3" x="790" y="360" width="28" height="34" rx="2" ry="2" id="231" />
  <rect class="cls-3" x="790" y="400" width="28" height="34" rx="2" ry="2" id="257" />
  <rect class="cls-3" x="790" y="440" width="28" height="34" rx="2" ry="2" id="283" />
  <rect class="cls-3" x="790" y="480" width="28" height="34" rx="2" ry="2" id="309" />
  <rect class="cls-3" x="790" y="520" width="28" height="34" rx="2" ry="2" id="335" />
  <rect class="cls-3" x="790" y="560" width="28" height="34" rx="2" ry="2" id="361" />
  <rect class="cls-3" x="790" y="600" width="28" height="34" rx="2" ry="2" id="387" />
  <rect class="cls-3" x="824" y="80" width="28" height="34" rx="2" ry="2" id="49" />
  <rect class="cls-3" x="824" y="120" width="28" height="34" rx="2" ry="2" id="76" />
  <rect class="cls-3" x="824" y="160" width="28" height="34" rx="2" ry="2" id="102" />
  <rect class="cls-3" x="824" y="200" width="28" height="34" rx="2" ry="2" id="128" />
  <rect class="cls-3" x="824" y="240" width="28" height="34" rx="2" ry="2" id="154" />
  <rect class="cls-3" x="824" y="280" width="28" height="34" rx="2" ry="2" id="180" />
  <rect class="cls-3" x="824" y="320" width="28" height="34" rx="2" ry="2" id="206" />
  <rect class="cls-3" x="824" y="360" width="28" height="34" rx="2" ry="2" id="232" />
  <rect class="cls-3" x="824" y="400" width="28" height="34" rx="2" ry="2" id="258" />
  <rect class="cls-3" x="824" y="440" width="28" height="34" rx="2" ry="2" id="284" />
  <rect class="cls-3" x="824" y="480" width="28" height="34" rx="2" ry="2" id="310" />
  <rect class="cls-3" x="824" y="520" width="28" height="34" rx="2" ry="2" id="336" />
  <rect class="cls-3" x="824" y="560" width="28" height="34" rx="2" ry="2" id="362" />
  <rect class="cls-3" x="824" y="600" width="28" height="34" rx="2" ry="2" id="388" />
  <rect class="cls-3" x="858" y="80" width="28" height="34" rx="2" ry="2" id="50" />
  <rect class="cls-3" x="858" y="120" width="28" height="34" rx="2" ry="2" id="77" />
  <rect class="cls-3" x="858" y="160" width="28" height="34" rx="2" ry="2" id="103" />
  <rect class="cls-3" x="858" y="200" width="28" height="34" rx="2" ry="2" id="129" />
  <rect class="cls-3" x="858" y="240" width="28" height="34" rx="2" ry="2" id="155" />
  <rect class="cls-3" x="858" y="280" width="28" height="34" rx="2" ry="2" id="181" />
  <rect class="cls-3" x="858" y="320" width="28" height="34" rx="2" ry="2" id="207" />
  <rect class="cls-3" x="858" y="360" width="28" height="34" rx="2" ry="2" id="233" />
  <rect class="cls-3" x="858" y="400" width="28" height="34" rx="2" ry="2" id="259" />
  <rect class="cls-3" x="858" y="440" width="28" height="34" rx="2" ry="2" id="285" />
  <rect class="cls-3" x="858" y="480" width="28" height="34" rx="2" ry="2" id="311" />
  <rect class="cls-3" x="858" y="520" width="28" height="34" rx="2" ry="2" id="337" />
  <rect class="cls-3" x="858" y="560" width="28" height="34" rx="2" ry="2" id="363" />
  <rect class="cls-3" x="858" y="600" width="28" height="34" rx="2" ry="2" id="389" />
  <rect class="cls-3" x="984" y="80" width="28" height="34" rx="2" ry="2" id="52" />
  <rect class="cls-3" x="984" y="120" width="28" height="34" rx="2" ry="2" id="78" />
  <rect class="cls-3" x="984" y="160" width="28" height="34" rx="2" ry="2" id="104" />
  <rect class="cls-3" x="984" y="200" width="28" height="34" rx="2" ry="2" id="130" />
  <rect class="cls-3" x="984" y="240" width="28" height="34" rx="2" ry="2" id="156" />
  <rect class="cls-3" x="984" y="280" width="28" height="34" rx="2" ry="2" id="182" />
  <rect class="cls-3" x="984" y="320" width="28" height="34" rx="2" ry="2" id="208" />
  <rect class="cls-3" x="984" y="360" width="28" height="34" rx="2" ry="2" id="234" />
  <rect class="cls-3" x="984" y="400" width="28" height="34" rx="2" ry="2" id="260" />
  <rect class="cls-3" x="984" y="440" width="28" height="34" rx="2" ry="2" id="286" />
  <rect class="cls-3" x="984" y="480" width="28" height="34" rx="2" ry="2" id="312" />
  <rect class="cls-3" x="984" y="520" width="28" height="34" rx="2" ry="2" id="338" />
  <rect class="cls-3" x="984" y="560" width="28" height="34" rx="2" ry="2" id="364" />
  <rect class="cls-3" x="984" y="600" width="28" height="34" rx="2" ry="2" id="390" />
  <rect class="cls-3" x="1018" y="80" width="28" height="34" rx="2" ry="2" id="53" />
  <rect class="cls-3" x="1018" y="120" width="28" height="34" rx="2" ry="2" id="79" />
  <rect class="cls-3" x="1018" y="160" width="28" height="34" rx="2" ry="2" id="105" />
  <rect class="cls-3" x="1018" y="200" width="28" height="34" rx="2" ry="2" id="131" />
  <rect class="cls-3" x="1018" y="240" width="28" height="34" rx="2" ry="2" id="157" />
  <rect class="cls-3" x="1018" y="280" width="28" height="34" rx="2" ry="2" id="183" />
  <rect class="cls-3" x="1018" y="320" width="28" height="34" rx="2" ry="2" id="209" />
  <rect class="cls-3" x="1018" y="360" width="28" height="34" rx="2" ry="2" id="235" />
  <rect class="cls-3" x="1018" y="400" width="28" height="34" rx="2" ry="2" id="261" />
  <rect class="cls-3" x="1018" y="440" width="28" height="34" rx="2" ry="2" id="287" />
  <rect class="cls-3" x="1018" y="480" width="28" height="34" rx="2" ry="2" id="313" />
  <rect class="cls-3" x="1018" y="520" width="28" height="34" rx="2" ry="2" id="339" />
  <rect class="cls-3" x="1018" y="560" width="28" height="34" rx="2" ry="2" id="365" />
  <rect class="cls-3" x="1018" y="600" width="28" height="34" rx="2" ry="2" id="391" />
  <rect class="cls-3" x="1052" y="80" width="28" height="34" rx="2" ry="2" id="54" />
  <rect class="cls-3" x="1052" y="120" width="28" height="34" rx="2" ry="2" id="80" />
  <rect class="cls-3" x="1052" y="160" width="28" height="34" rx="2" ry="2" id="106" />
  <rect class="cls-3" x="1052" y="200" width="28" height="34" rx="2" ry="2" id="132" />
  <rect class="cls-3" x="1052" y="240" width="28" height="34" rx="2" ry="2" id="158" />
  <rect class="cls-3" x="1052" y="280" width="28" height="34" rx="2" ry="2" id="184" />
  <rect class="cls-3" x="1052" y="320" width="28" height="34" rx="2" ry="2" id="210" />
  <rect class="cls-3" x="1052" y="360" width="28" height="34" rx="2" ry="2" id="236" />
  <rect class="cls-3" x="1052" y="400" width="28" height="34" rx="2" ry="2" id="262" />
  <rect class="cls-3" x="1052" y="440" width="28" height="34" rx="2" ry="2" id="288" />
  <rect class="cls-3" x="1052" y="480" width="28" height="34" rx="2" ry="2" id="314" />
  <rect class="cls-3" x="1052" y="520" width="28" height="34" rx="2" ry="2" id="340" />
  <rect class="cls-3" x="1052" y="560" width="28" height="34" rx="2" ry="2" id="366" />
  <rect class="cls-3" x="1052" y="600" width="28" height="34" rx="2" ry="2" id="392" />
  <rect class="cls-3" x="1086" y="80" width="28" height="34" rx="2" ry="2" id="55" />
  <rect class="cls-3" x="1086" y="120" width="28" height="34" rx="2" ry="2" id="81" />
  <rect class="cls-3" x="1086" y="160" width="28" height="34" rx="2" ry="2" id="107" />
  <rect class="cls-3" x="1086" y="200" width="28" height="34" rx="2" ry="2" id="133" />
  <rect class="cls-3" x="1086" y="240" width="28" height="34" rx="2" ry="2" id="159" />
  <rect class="cls-3" x="1086" y="280" width="28" height="34" rx="2" ry="2" id="185" />
  <rect class="cls-3" x="1086" y="320" width="28" height="34" rx="2" ry="2" id="211" />
  <rect class="cls-3" x="1086" y="360" width="28" height="34" rx="2" ry="2" id="237" />
  <rect class="cls-3" x="1086" y="400" width="28" height="34" rx="2" ry="2" id="263" />
  <rect class="cls-3" x="1086" y="440" width="28" height="34" rx="2" ry="2" id="289" />
  <rect class="cls-3" x="1086" y="480" width="28" height="34" rx="2" ry="2" id="315" />
  <rect class="cls-3" x="1086" y="520" width="28" height="34" rx="2" ry="2" id="341" />
  <rect class="cls-3" x="1086" y="560" width="28" height="34" rx="2" ry="2" id="367" />
  <rect class="cls-3" x="1086" y="600" width="28" height="34" rx="2" ry="2" id="393" />
  <rect class="cls-3" x="1120" y="80" width="28" height="34" rx="2" ry="2" id="56" />
  <rect class="cls-3" x="1120" y="120" width="28" height="34" rx="2" ry="2" id="82" />
  <rect class="cls-3" x="1120" y="160" width="28" height="34" rx="2" ry="2" id="108" />
  <rect class="cls-3" x="1120" y="200" width="28" height="34" rx="2" ry="2" id="134" />
  <rect class="cls-3" x="1120" y="240" width="28" height="34" rx="2" ry="2" id="160" />
  <rect class="cls-3" x="1120" y="280" width="28" height="34" rx="2" ry="2" id="186" />
  <rect class="cls-3" x="1120" y="320" width="28" height="34" rx="2" ry="2" id="212" />
  <rect class="cls-3" x="1120" y="360" width="28" height="34" rx="2" ry="2" id="238" />
  <rect class="cls-3" x="1120" y="400" width="28" height="34" rx="2" ry="2" id="264" />
  <rect class="cls-3" x="1120" y="440" width="28" height="34" rx="2" ry="2" id="290" />
  <rect class="cls-3" x="1120" y="480" width="28" height="34" rx="2" ry="2" id="316" />
  <rect class="cls-3" x="1120" y="520" width="28" height="34" rx="2" ry="2" id="342" />
  <rect class="cls-3" x="1120" y="560" width="28" height="34" rx="2" ry="2" id="368" />
  <rect class="cls-3" x="1120" y="600" width="28" height="34" rx="2" ry="2" id="394" />
  <rect class="cls-3" x="1154" y="80" width="28" height="34" rx="2" ry="2" id="57" />
  <rect class="cls-3" x="1154" y="120" width="28" height="34" rx="2" ry="2" id="83" />
  <rect class="cls-3" x="1154" y="160" width="28" height="34" rx="2" ry="2" id="109" />
  <rect class="cls-3" x="1154" y="200" width="28" height="34" rx="2" ry="2" id="135" />
  <rect class="cls-3" x="1154" y="240" width="28" height="34" rx="2" ry="2" id="161" />
  <rect class="cls-3" x="1154" y="280" width="28" height="34" rx="2" ry="2" id="187" />
  <rect class="cls-3" x="1154" y="320" width="28" height="34" rx="2" ry="2" id="213" />
  <rect class="cls-3" x="1154" y="360" width="28" height="34" rx="2" ry="2" id="239" />
  <rect class="cls-3" x="1154" y="400" width="28" height="34" rx="2" ry="2" id="265" />
  <rect class="cls-3" x="1154" y="440" width="28" height="34" rx="2" ry="2" id="291" />
  <rect class="cls-3" x="1154" y="480" width="28" height="34" rx="2" ry="2" id="317" />
  <rect class="cls-3" x="1154" y="520" width="28" height="34" rx="2" ry="2" id="343" />
  <rect class="cls-3" x="1154" y="560" width="28" height="34" rx="2" ry="2" id="369" />
  <rect class="cls-3" x="1154" y="600" width="28" height="34" rx="2" ry="2" id="395" />
  <rect class="cls-4" x="120" y="36" width="28" height="34" id="2" />
  <text class="cls-6" transform="translate(129.55 60)"><tspan x="0" y="0">1</tspan></text>
  <rect class="cls-4" x="154" y="36" width="28" height="34" id="3" />
  <text class="cls-6" transform="translate(163.55 60)"><tspan x="0" y="0">2</tspan></text>
  <rect class="cls-4" x="188" y="36" width="28" height="34" id="4" />
  <text class="cls-6" transform="translate(197.55 60)"><tspan x="0" y="0">3</tspan></text>
  <rect class="cls-4" x="222" y="36" width="28" height="34" id="5" />
  <text class="cls-6" transform="translate(231.55 60)"><tspan x="0" y="0">4</tspan></text>
  <rect class="cls-4" x="256" y="36" width="28" height="34" id="6" />
  <text class="cls-6" transform="translate(265.55 60)"><tspan x="0" y="0">5</tspan></text>
  <rect class="cls-4" x="290" y="36" width="28" height="34" id="7" />
  <text class="cls-6" transform="translate(299.55 60)"><tspan x="0" y="0">6</tspan></text>
  <rect class="cls-4" x="416" y="36" width="28" height="34" id="8" />
  <text class="cls-6" transform="translate(425.55 60)"><tspan x="0" y="0">7</tspan></text>
  <rect class="cls-4" x="450" y="36" width="28" height="34" id="9" />
  <text class="cls-6" transform="translate(459.55 60)"><tspan x="0" y="0">8</tspan></text>
  <rect class="cls-4" x="484" y="36" width="28" height="34" id="10" />
  <text class="cls-6" transform="translate(493.55 60)"><tspan x="0" y="0">9</tspan></text>
  <rect class="cls-4" x="518" y="36" width="28" height="34" id="11" />
  <text class="cls-6" transform="translate(523.1 60)"><tspan x="0" y="0">10</tspan></text>
  <rect class="cls-4" x="552" y="36" width="28" height="34" id="12" />
  <text class="cls-6" transform="translate(557.7 60)"><tspan class="cls-9" x="0" y="0">1</tspan><tspan x="7.71" y="0">1</tspan></text>
  <rect class="cls-4" x="586" y="36" width="28" height="34" id="13" />
  <text class="cls-6" transform="translate(591.1 60)"><tspan x="0" y="0">12</tspan></text>
  <rect class="cls-4" x="620" y="36" width="28" height="34" id="14" />
  <text class="cls-6" transform="translate(625.1 60)"><tspan x="0" y="0">13</tspan></text>
  <rect class="cls-4" x="654" y="36" width="28" height="34" id="15" />
  <text class="cls-6" transform="translate(659.1 60)"><tspan x="0" y="0">14</tspan></text>
  <rect class="cls-4" x="688" y="36" width="28" height="34" id="16" />
  <text class="cls-6" transform="translate(693.1 60)"><tspan x="0" y="0">15</tspan></text>
  <rect class="cls-4" x="722" y="36" width="28" height="34" id="17" />
  <text class="cls-6" transform="translate(727.1 60)"><tspan x="0" y="0">16</tspan></text>
  <rect class="cls-4" x="756" y="36" width="28" height="34" id="18" />
  <text class="cls-6" transform="translate(761.1 60)"><tspan x="0" y="0">17</tspan></text>
  <rect class="cls-4" x="790" y="36" width="28" height="34" id="19" />
  <text class="cls-6" transform="translate(795.1 60)"><tspan x="0" y="0">18</tspan></text>
  <rect class="cls-4" x="824" y="36" width="28" height="34" id="20" />
  <text class="cls-6" transform="translate(829.1 60)"><tspan x="0" y="0">19</tspan></text>
  <rect class="cls-4" x="858" y="36" width="28" height="34" id="21" />
  <text class="cls-6" transform="translate(863.1 60)"><tspan x="0" y="0">20</tspan></text>
  <rect class="cls-4" x="984" y="36" width="28" height="34" id="22" />
  <text class="cls-6" transform="translate(989.1 60)"><tspan x="0" y="0">21</tspan></text>
  <rect class="cls-4" x="1018" y="36" width="28" height="34" id="23" />
  <text class="cls-6" transform="translate(1023.1 60)"><tspan x="0" y="0">22</tspan></text>
  <rect class="cls-4" x="1052" y="36" width="28" height="34" id="24" />
  <text class="cls-6" transform="translate(1057.1 60)"><tspan x="0" y="0">23</tspan></text>
  <rect class="cls-4" x="1086" y="36" width="28" height="34" id="25" />
  <text class="cls-6" transform="translate(1091.1 60)"><tspan x="0" y="0">24</tspan></text>
  <rect class="cls-4" x="1120" y="36" width="28" height="34" id="26" />
  <text class="cls-6" transform="translate(1125.1 60)"><tspan x="0" y="0">25</tspan></text>
  <rect class="cls-4" x="1154" y="36" width="28" height="34" id="27" />
  <text class="cls-6" transform="translate(1159.1 60)"><tspan x="0" y="0">26</tspan></text>
  <rect class="cls-4" x="120" y="646" width="28" height="34" id="396" />
  <text class="cls-6" transform="translate(129.55 670)"><tspan x="0" y="0">1</tspan></text>
  <rect class="cls-4" x="154" y="646" width="28" height="34" id="397" />
  <text class="cls-6" transform="translate(163.55 670)"><tspan x="0" y="0">2</tspan></text>
  <rect class="cls-4" x="188" y="646" width="28" height="34" id="398" />
  <text class="cls-6" transform="translate(197.55 670)"><tspan x="0" y="0">3</tspan></text>
  <rect class="cls-4" x="222" y="646" width="28" height="34" id="399" />
  <text class="cls-6" transform="translate(231.55 670)"><tspan x="0" y="0">4</tspan></text>
  <rect class="cls-4" x="256" y="646" width="28" height="34" id="400" />
  <text class="cls-6" transform="translate(265.55 670)"><tspan x="0" y="0">5</tspan></text>
  <rect class="cls-4" x="290" y="646" width="28" height="34" id="401" />
  <text class="cls-6" transform="translate(299.55 670)"><tspan x="0" y="0">6</tspan></text>
  <rect class="cls-4" x="416" y="646" width="28" height="34" id="402" />
  <text class="cls-6" transform="translate(425.55 670)"><tspan x="0" y="0">7</tspan></text>
  <rect class="cls-4" x="450" y="646" width="28" height="34" id="403" />
  <text class="cls-6" transform="translate(459.55 670)"><tspan x="0" y="0">8</tspan></text>
  <rect class="cls-4" x="484" y="646" width="28" height="34" id="404" />
  <text class="cls-6" transform="translate(493.55 670)"><tspan x="0" y="0">9</tspan></text>
  <rect class="cls-4" x="518" y="646" width="28" height="34" id="405" />
  <text class="cls-6" transform="translate(523.1 670)"><tspan x="0" y="0">10</tspan></text>
  <rect class="cls-4" x="552" y="646" width="28" height="34" id="406" />
  <text class="cls-6" transform="translate(557.7 670)"><tspan class="cls-9" x="0" y="0">1</tspan><tspan x="7.71" y="0">1</tspan></text>
  <rect class="cls-4" x="586" y="646" width="28" height="34" id="407" />
  <text class="cls-6" transform="translate(591.1 670)"><tspan x="0" y="0">12</tspan></text>
  <rect class="cls-4" x="620" y="646" width="28" height="34" id="408" />
  <text class="cls-6" transform="translate(625.1 670)"><tspan x="0" y="0">13</tspan></text>
  <rect class="cls-4" x="654" y="646" width="28" height="34" id="409" />
  <text class="cls-6" transform="translate(659.1 670)"><tspan x="0" y="0">14</tspan></text>
  <rect class="cls-4" x="688" y="646" width="28" height="34" id="410" />
  <text class="cls-6" transform="translate(693.1 670)"><tspan x="0" y="0">15</tspan></text>
  <rect class="cls-4" x="722" y="646" width="28" height="34" id="411" />
  <text class="cls-6" transform="translate(727.1 670)"><tspan x="0" y="0">16</tspan></text>
  <rect class="cls-4" x="756" y="646" width="28" height="34" id="412" />
  <text class="cls-6" transform="translate(761.1 670)"><tspan x="0" y="0">17</tspan></text>
  <rect class="cls-4" x="790" y="646" width="28" height="34" id="413" />
  <text class="cls-6" transform="translate(795.1 670)"><tspan x="0" y="0">18</tspan></text>
  <rect class="cls-4" x="824" y="646" width="28" height="34" id="414" />
  <text class="cls-6" transform="translate(829.1 670)"><tspan x="0" y="0">19</tspan></text>
  <rect class="cls-4" x="858" y="646" width="28" height="34" id="415" />
  <text class="cls-6" transform="translate(863.1 670)"><tspan x="0" y="0">20</tspan></text>
  <rect class="cls-4" x="984" y="646" width="28" height="34" id="416" />
  <text class="cls-6" transform="translate(989.1 670)"><tspan x="0" y="0">21</tspan></text>
  <rect class="cls-4" x="1018" y="646" width="28" height="34" id="417" />
  <text class="cls-6" transform="translate(1023.1 670)"><tspan x="0" y="0">22</tspan></text>
  <rect class="cls-4" x="1052" y="646" width="28" height="34" id="418" />
  <text class="cls-6" transform="translate(1057.1 670)"><tspan x="0" y="0">23</tspan></text>
  <rect class="cls-4" x="1086" y="646" width="28" height="34" id="419" />
  <text class="cls-6" transform="translate(1091.1 670)"><tspan x="0" y="0">24</tspan></text>
  <rect class="cls-4" x="1120" y="646" width="28" height="34" id="420" />
  <text class="cls-6" transform="translate(1125.1 670)"><tspan x="0" y="0">25</tspan></text>
  <rect class="cls-4" x="1154" y="646" width="28" height="34" id="421" />
  <text class="cls-6" transform="translate(1159.1 670)"><tspan x="0" y="0">26</tspan></text>
  <rect class="cls-4" x="120" y="700" width="1064.48" height="46" id="422" />
  <text class="cls-5" transform="translate(613.06 729.45)"><tspan x="0" y="0">Escenario</tspan></text>
</svg>